<svg width="234" height="64" viewBox="0 0 234 64" fill="none" xmlns="http://www.w3.org/2000/svg">
<path d="M60.4844 32.0014C60.4844 14.486 86.715 1.4433 116.993 1.4433C147.272 1.4433 173.516 14.486 173.516 32.0014C173.516 49.5222 147.272 62.5327 116.993 62.5327C86.715 62.5327 60.4844 49.5222 60.4844 32.0014Z" fill="white"/>
<path fill-rule="evenodd" clip-rule="evenodd" d="M116.993 0C149.012 0 175 14.3389 175 32.0013C175 49.6664 149.012 64 116.993 64C84.9877 64 59 49.6664 59 32.0013C59 14.3389 84.9877 0 116.993 0ZM116.993 2.8865C86.6068 2.8865 61.928 15.9559 61.928 32.0013C61.928 48.0535 86.6068 61.0921 116.993 61.0921C147.38 61.0921 172.059 48.0535 172.059 32.0013C172.059 15.9559 147.38 2.8865 116.993 2.8865ZM106.806 35.0736H95.3908C95.5258 37.8558 97.1045 39.1454 99.4658 39.1454C101.22 39.1454 102.421 38.1672 102.731 37.1823H106.469C105.511 40.5486 102.731 42.1067 99.3038 42.1067C94.4463 42.1067 91.4239 38.7966 91.4239 34.0687C91.4239 29.489 94.6217 26.0012 99.3038 26.0012C104.566 26.0012 107.103 30.375 106.806 35.0736ZM99.1959 28.885C96.8211 28.885 95.6067 30.4499 95.4178 32.4517H102.826C102.542 30.3149 101.638 28.885 99.1959 28.885ZM156.231 35.0736H144.816C144.937 37.8558 146.53 39.1454 148.877 39.1454C150.645 39.1454 151.846 38.1672 152.156 37.1823H155.894C154.936 40.5486 152.156 42.1067 148.729 42.1067C143.858 42.1067 140.849 38.7966 140.849 34.0687C140.849 29.489 144.047 26.0012 148.729 26.0012C153.991 26.0012 156.528 30.375 156.231 35.0736ZM148.608 28.885C146.246 28.885 145.032 30.4499 144.829 32.4517H152.251C151.967 30.3149 151.063 28.885 148.608 28.885ZM71.4541 41.6925H75.6909V32.5907H84.8392V41.6925H89.0761V20.5529H84.8392V29.2084H75.6909V20.5529H71.4541V41.6925ZM109.14 41.6925H113.134V33.4286C113.134 30.3256 114.241 29.0547 116.535 29.0547C118.504 29.0547 119.395 30.2962 119.395 32.8072V41.6925H123.375V32.2953C123.375 28.5135 122.242 26.0012 117.722 26.0012C115.941 26.0012 114.079 26.8297 113.013 28.5429H112.918V26.4154H109.14V41.6925ZM126.776 41.6925H130.756V33.4192L136.639 41.6925H141.591L135.114 33.1199L140.849 26.4154H136.099L130.756 33.0023V20.5529H126.776V41.6925ZM158.565 41.6925H162.546V20.5529H158.565V41.6925Z" fill="#EC1B23"/>
</svg>
